<svg xmlns="http://www.w3.org/2000/svg" viewBox="0 0 100 100" fill="none">
  <defs>
    <clipPath id="cc">
      <path d="M 40 14 L 60 14 A 4 4 0 0 1 64 18 L 64 36 L 82 36 A 4 4 0 0 1 86 40 L 86 60 A 4 4 0 0 1 82 64 L 64 64 L 64 82 A 4 4 0 0 1 60 86 L 40 86 A 4 4 0 0 1 36 82 L 36 64 L 18 64 A 4 4 0 0 1 14 60 L 14 40 A 4 4 0 0 1 18 36 L 36 36 L 36 18 A 4 4 0 0 1 40 14 Z"/>
    </clipPath>
  </defs>
  <g clip-path="url(#cc)">
    <g transform="translate(50 50) rotate(45)">
      <rect x="-4" y="-26" width="8" height="40" rx="1" fill="#A1A1AA"/>
      <rect x="-4" y="-26" width="8" height="6" fill="#71717A"/>
      <rect x="-4" y="-12" width="8" height="2" fill="#71717A"/>
      <polygon points="-4,14 4,14 0,26" fill="#52525B"/>
      <polygon points="-1.2,22 1.2,22 0,26" fill="#FFFFFF"/>
    </g>
  </g>
  <path
    d="M 40 14 L 60 14 A 4 4 0 0 1 64 18 L 64 36 L 82 36 A 4 4 0 0 1 86 40 L 86 60 A 4 4 0 0 1 82 64 L 64 64 L 64 82 A 4 4 0 0 1 60 86 L 40 86 A 4 4 0 0 1 36 82 L 36 64 L 18 64 A 4 4 0 0 1 14 60 L 14 40 A 4 4 0 0 1 18 36 L 36 36 L 36 18 A 4 4 0 0 1 40 14 Z"
    stroke="#22c55e" stroke-width="7" stroke-linejoin="round" fill="none"/>
</svg>
