<svg xmlns="http://www.w3.org/2000/svg" viewBox="0 0 100 100" fill="none">
  <path
    d="M 40 14 L 60 14 A 4 4 0 0 1 64 18 L 64 36 L 82 36 A 4 4 0 0 1 86 40 L 86 60 A 4 4 0 0 1 82 64 L 64 64 L 64 82 A 4 4 0 0 1 60 86 L 40 86 A 4 4 0 0 1 36 82 L 36 64 L 18 64 A 4 4 0 0 1 14 60 L 14 40 A 4 4 0 0 1 18 36 L 36 36 L 36 18 A 4 4 0 0 1 40 14 Z"
    stroke="#22c55e" stroke-width="8" stroke-linejoin="round"/>
  <g transform="translate(50 50) rotate(40)">
    <rect x="-5" y="-26" width="10" height="44" rx="2" fill="#9CA3AF"/>
    <rect x="-5" y="-26" width="10" height="6" fill="#6B7280"/>
    <polygon points="-5,18 5,18 0,29" fill="#4B5563"/>
    <polygon points="-1.7,24 1.7,24 0,29" fill="#FFFFFF"/>
  </g>
</svg>
